HIERARCHY
ROOT joint_Root
{
	OFFSET 0.0 0.0 0.0
	CHANNELS 6 Xposition Yposition Zposition Zrotation Xrotation Yrotation 
	JOINT Hips
	{
		OFFSET -0.726466 93.3139 -2.00062
		CHANNELS 6 Xposition Yposition Zposition Zrotation Xrotation Yrotation 
		JOINT Spine
		{
			OFFSET 15.7357 0.0 0.0
			CHANNELS 6 Xposition Yposition Zposition Zrotation Xrotation Yrotation 
			JOINT Chest
			{
				OFFSET 8.98455 -0.406207 0.0
				CHANNELS 6 Xposition Yposition Zposition Zrotation Xrotation Yrotation 
				JOINT Neck
				{
					OFFSET 16.3773 0.0 0.0
					CHANNELS 6 Xposition Yposition Zposition Zrotation Xrotation Yrotation 
					JOINT Head
					{
						OFFSET 6.45672 0.0 0.0
						CHANNELS 6 Xposition Yposition Zposition Zrotation Xrotation Yrotation 
						End Site
						{
							OFFSET 0.0 0.0 0.0
						}
					}
				}
				JOINT Shoulder_L
				{
					OFFSET 12.9942 -0.242716 4.98039
					CHANNELS 6 Xposition Yposition Zposition Zrotation Xrotation Yrotation 
					JOINT UpperArm_L
					{
						OFFSET 5.34809 0.0 0.0
						CHANNELS 6 Xposition Yposition Zposition Zrotation Xrotation Yrotation 
						JOINT LowerArm_L
						{
							OFFSET 24.3286 1.87007e-05 0.0
							CHANNELS 6 Xposition Yposition Zposition Zrotation Xrotation Yrotation 
							JOINT Hand_L
							{
								OFFSET 22.2916 0.0 0.0
								CHANNELS 6 Xposition Yposition Zposition Zrotation Xrotation Yrotation 
								End Site
								{
									OFFSET 0.0 0.0 0.0
								}
							}
						}
					}
				}
				JOINT Shoulder_R
				{
					OFFSET 12.9945 -0.242716 -4.98039
					CHANNELS 6 Xposition Yposition Zposition Zrotation Xrotation Yrotation 
					JOINT UpperArm_R
					{
						OFFSET -5.34813 0.0 0.0
						CHANNELS 6 Xposition Yposition Zposition Zrotation Xrotation Yrotation 
						JOINT LowerArm_R
						{
							OFFSET -24.3289 0.000322201 0.0
							CHANNELS 6 Xposition Yposition Zposition Zrotation Xrotation Yrotation 
							JOINT Hand_R
							{
								OFFSET -22.2915 -0.000108084 0.0
								CHANNELS 6 Xposition Yposition Zposition Zrotation Xrotation Yrotation 
								End Site
								{
									OFFSET 0.0 0.0 0.0
								}
							}
						}
					}
				}
			}
		}
		JOINT UpperLeg_L
		{
			OFFSET -2.19248 -6.46944 0.0
			CHANNELS 6 Xposition Yposition Zposition Zrotation Xrotation Yrotation 
			JOINT LowerLeg_L
			{
				OFFSET 39.0811 0.0 -1.23785e-05
				CHANNELS 6 Xposition Yposition Zposition Zrotation Xrotation Yrotation 
				JOINT Foot_L
				{
					OFFSET 40.9854 0.0 -1.26872e-05
					CHANNELS 6 Xposition Yposition Zposition Zrotation Xrotation Yrotation 
					JOINT Toes_L
					{
						OFFSET 11.7543 0.0 0.0
						CHANNELS 6 Xposition Yposition Zposition Zrotation Xrotation Yrotation 
						End Site
						{
							OFFSET 0.0 0.0 0.0
						}
					}
				}
			}
		}
		JOINT UpperLeg_R
		{
			OFFSET -2.19251 6.46944 0.0
			CHANNELS 6 Xposition Yposition Zposition Zrotation Xrotation Yrotation 
			JOINT LowerLeg_R
			{
				OFFSET -39.0811 -0.00228153 -0.0401928
				CHANNELS 6 Xposition Yposition Zposition Zrotation Xrotation Yrotation 
				JOINT Foot_R
				{
					OFFSET -40.9854 0.0 0.0
					CHANNELS 6 Xposition Yposition Zposition Zrotation Xrotation Yrotation 
					JOINT Toes_R
					{
						OFFSET -11.7543 0.0 0.0
						CHANNELS 6 Xposition Yposition Zposition Zrotation Xrotation Yrotation 
						End Site
						{
							OFFSET 0.0 0.0 0.0
						}
					}
				}
			}
		}
	}
}
MOTION
Frames:	5
Frame Time:	0.0333333
0.000000 0.000000 0.000000 0.000000 0.000000 -0.000000 -1.061030 92.520100 -3.128160 88.084600 -0.845207 4.143010 15.735700 0.000005 -0.000001 87.505400 85.145300 -87.409100 8.984550 -0.406207 -0.000000 1.934640 -0.427242 0.199498 16.377300 -0.000001 -0.000001 2.949420 -2.316180 0.480027 6.456720 -0.000001 -0.000000 1.943190 -1.469990 0.290472 12.994200 -0.242716 4.980390 -89.999200 -0.002743 -73.336900 5.348090 -0.000007 -0.000001 -66.623700 39.141700 -16.695200 24.328600 0.000019 0.000005 2.101530 4.879620 -23.334000 22.291600 -0.000001 0.000005 2.449520 5.458160 -4.933710 12.994500 -0.242716 -4.980390 87.706400 7.092370 -72.027700 -5.348130 -0.000001 -0.000004 -64.843000 41.068500 -17.040200 -24.328900 0.000322 -0.000009 3.178150 9.801530 -18.070300 -22.291500 -0.000108 -0.000004 5.249310 5.343140 -1.171260 -2.192480 -6.469440 -0.000000 -175.444000 -6.468060 -4.113210 39.081100 -0.000007 -0.000012 -0.095974 0.232378 22.441000 40.985400 -0.000006 -0.000013 -0.429455 3.450040 -64.369200 11.754300 -0.000000 0.000003 -0.000031 -0.000371 -16.592000 -2.192510 6.469440 -0.000001 -179.771000 12.745400 178.047000 -39.081100 -0.002282 -0.040193 -0.045767 0.140364 19.276500 -40.985400 0.000008 0.000006 2.692700 7.190570 -63.635100 -11.754300 -0.000006 -0.000006 -0.007637 -0.085043 -20.035800
0.000000 0.000000 0.000000 0.000000 0.000000 -0.000000 -1.054060 92.496100 -3.095760 88.083400 -0.780334 4.250530 15.735700 0.000005 -0.000001 87.476600 85.155300 -87.366600 8.984550 -0.406207 -0.000000 1.914430 -0.431939 0.227111 16.377300 -0.000001 -0.000001 2.903930 -2.329900 0.555139 6.456720 -0.000001 -0.000000 2.006930 -1.431990 0.183288 12.994200 -0.242716 4.980390 -90.063000 0.212605 -73.485100 5.348090 -0.000007 -0.000001 -65.619900 38.427400 -17.394000 24.328600 0.000019 0.000005 2.390530 5.328620 -24.203700 22.291600 -0.000001 0.000005 1.587940 5.457890 -4.923380 12.994500 -0.242716 -4.980390 87.739700 7.033690 -72.134300 -5.348130 -0.000001 -0.000004 -63.460400 42.031200 -17.989000 -24.328900 0.000322 -0.000009 3.633720 10.424500 -19.343800 -22.291500 -0.000108 -0.000004 2.774290 5.326900 -0.683702 -2.192480 -6.469440 -0.000000 -175.448000 -6.343820 -4.083580 39.081100 -0.000007 -0.000012 -0.095910 0.230293 22.610200 40.985400 -0.000006 -0.000013 -0.431632 3.386920 -64.466800 11.754300 -0.000000 0.000003 -0.000027 -0.000332 -16.590500 -2.192510 6.469440 -0.000001 -179.837000 12.815900 178.122000 -39.081100 -0.002282 -0.040193 -0.051027 0.154210 19.414500 -40.985400 0.000008 0.000006 2.545130 7.209250 -63.712900 -11.754300 -0.000006 -0.000006 -0.007801 -0.086403 -20.091300
0.000000 0.000000 0.000000 0.000000 0.000000 -0.000000 -1.057930 92.493700 -3.160730 88.091700 -0.674218 4.376920 15.735700 0.000005 -0.000001 87.343100 85.136900 -87.234400 8.984550 -0.406207 -0.000000 1.950290 -0.456092 0.224881 16.377300 -0.000001 -0.000001 2.760340 -2.306100 0.598069 6.456720 -0.000001 -0.000000 2.089490 -1.365620 0.294344 12.994200 -0.242716 4.980390 -90.117100 0.397946 -73.607300 5.348090 -0.000007 -0.000001 -63.206600 37.292700 -19.714900 24.328600 0.000019 0.000005 4.298640 8.788380 -26.188900 22.291600 -0.000001 0.000005 1.549670 5.451660 -4.699970 12.994500 -0.242716 -4.980390 87.699100 7.197610 -72.219200 -5.348130 -0.000001 -0.000004 -60.148400 42.598300 -20.612500 -24.328900 0.000322 -0.000009 4.748580 11.938300 -21.880600 -22.291500 -0.000108 -0.000004 -2.137800 5.322970 -0.583079 -2.192480 -6.469440 -0.000000 -175.446000 -6.313080 -4.025210 39.081100 -0.000007 -0.000012 -0.096213 0.230646 22.643200 40.985400 -0.000006 -0.000013 -0.414499 3.455030 -64.438200 11.754300 -0.000000 0.000003 -0.000029 -0.000347 -16.591100 -2.192510 6.469440 -0.000001 -179.850000 12.868100 178.185000 -39.081100 -0.002282 -0.040193 -0.049314 0.148892 19.469500 -40.985400 0.000008 0.000006 2.566030 7.138610 -63.706500 -11.754300 -0.000006 -0.000006 -0.007875 -0.087008 -20.116000
0.000000 0.000000 0.000000 0.000000 0.000000 -0.000000 -1.057800 92.487200 -3.289030 88.116500 -0.579545 4.535050 15.735700 0.000005 -0.000001 87.148100 85.109900 -87.039300 8.984550 -0.406207 -0.000000 2.002690 -0.491765 0.226095 16.377300 -0.000001 -0.000001 2.841600 -2.335200 0.593157 6.456720 -0.000001 -0.000000 1.963120 -1.372770 0.419990 12.994200 -0.242716 4.980390 -90.153200 0.526650 -73.783700 5.348090 -0.000007 -0.000001 -59.633500 34.763900 -23.452500 24.328600 0.000019 0.000005 6.356820 11.424300 -29.353700 22.291600 -0.000001 0.000005 2.566300 5.455380 -4.829870 12.994500 -0.242716 -4.980390 87.645900 7.300990 -72.073800 -5.348130 -0.000001 -0.000004 -55.087900 41.743300 -25.334700 -24.328900 0.000322 -0.000009 6.002180 12.818600 -25.357800 -22.291500 -0.000108 -0.000004 -4.823040 5.341940 -1.137380 -2.192480 -6.469440 -0.000000 -175.461000 -6.338420 -4.016640 39.081100 -0.000007 -0.000012 -0.094001 0.224460 22.723400 40.985400 -0.000006 -0.000013 -0.380626 3.572750 -64.374400 11.754300 -0.000000 0.000003 -0.000026 -0.000317 -16.589900 -2.192510 6.469440 -0.000001 -179.908000 12.917300 178.205000 -39.081100 -0.002282 -0.040193 -0.051580 0.154344 19.581100 -40.985400 0.000008 0.000006 2.496130 7.120430 -63.667900 -11.754300 -0.000006 -0.000006 -0.007721 -0.085742 -20.064300
0.000000 0.000000 0.000000 0.000000 0.000000 -0.000000 -1.052670 92.486800 -3.488760 88.111100 -0.527688 4.687780 15.735700 0.000005 -0.000001 86.802500 85.121400 -86.670900 8.984550 -0.406207 -0.000000 1.976660 -0.550524 0.272536 16.377300 -0.000001 -0.000001 3.088040 -2.393940 0.614779 6.456720 -0.000001 -0.000000 2.079220 -1.351170 0.425013 12.994200 -0.242716 4.980390 -90.137000 0.478316 -74.020500 5.348090 -0.000007 -0.000001 -56.393300 29.778600 -27.469500 24.328600 0.000019 0.000005 7.120920 10.760400 -33.787800 22.291600 -0.000001 0.000005 4.704960 5.476140 -5.594120 12.994500 -0.242716 -4.980390 87.666600 7.168240 -71.915300 -5.348130 -0.000001 -0.000004 -50.819600 37.421600 -30.292300 -24.328900 0.000322 -0.000009 7.834290 13.654800 -30.236000 -22.291500 -0.000108 -0.000004 -3.220190 5.340730 -1.098360 -2.192480 -6.469440 -0.000000 -175.451000 -6.342560 -4.056510 39.081100 -0.000007 -0.000012 -0.094519 0.224814 22.803400 40.985400 -0.000006 -0.000013 -0.358389 3.633340 -64.265600 11.754300 -0.000000 0.000003 -0.000032 -0.000385 -16.592600 -2.192510 6.469440 -0.000001 -179.937000 13.009100 178.197000 -39.081100 -0.002282 -0.040193 -0.054475 0.162028 19.631800 -40.985400 0.000008 0.000006 2.371330 7.164570 -63.536900 -11.754300 -0.000006 -0.000006 -0.007942 -0.087560 -20.138500
